<?xml version="1.0" standalone="no"?>
<svg xmlns:xlink="http://www.w3.org/1999/xlink" id="wave" style="transform:rotate(0deg); transition: 0.3s" viewBox="0 0 1440 100" version="1.1" xmlns="http://www.w3.org/2000/svg"><defs><linearGradient id="sw-gradient-0" x1="0" x2="0" y1="1" y2="0"><stop stop-color="rgba(22, 57, 48, 1)" offset="0%"/><stop stop-color="rgba(22, 57, 48, 1)" offset="100%"/></linearGradient></defs><path style="transform:translate(0, 0px); opacity:1" fill="url(#sw-gradient-0)" d="M0,0L48,8.3C96,17,192,33,288,46.7C384,60,480,70,576,75C672,80,768,80,864,73.3C960,67,1056,53,1152,43.3C1248,33,1344,27,1440,23.3C1536,20,1632,20,1728,26.7C1824,33,1920,47,2016,50C2112,53,2208,47,2304,36.7C2400,27,2496,13,2592,11.7C2688,10,2784,20,2880,23.3C2976,27,3072,23,3168,26.7C3264,30,3360,40,3456,41.7C3552,43,3648,37,3744,35C3840,33,3936,37,4032,31.7C4128,27,4224,13,4320,20C4416,27,4512,53,4608,65C4704,77,4800,73,4896,71.7C4992,70,5088,70,5184,66.7C5280,63,5376,57,5472,56.7C5568,57,5664,63,5760,65C5856,67,5952,63,6048,61.7C6144,60,6240,60,6336,55C6432,50,6528,40,6624,45C6720,50,6816,70,6864,80L6912,90L6912,100L6864,100C6816,100,6720,100,6624,100C6528,100,6432,100,6336,100C6240,100,6144,100,6048,100C5952,100,5856,100,5760,100C5664,100,5568,100,5472,100C5376,100,5280,100,5184,100C5088,100,4992,100,4896,100C4800,100,4704,100,4608,100C4512,100,4416,100,4320,100C4224,100,4128,100,4032,100C3936,100,3840,100,3744,100C3648,100,3552,100,3456,100C3360,100,3264,100,3168,100C3072,100,2976,100,2880,100C2784,100,2688,100,2592,100C2496,100,2400,100,2304,100C2208,100,2112,100,2016,100C1920,100,1824,100,1728,100C1632,100,1536,100,1440,100C1344,100,1248,100,1152,100C1056,100,960,100,864,100C768,100,672,100,576,100C480,100,384,100,288,100C192,100,96,100,48,100L0,100Z"/></svg>